<?xml version="1.0" encoding="utf-8"?>
<!-- Generator: Adobe Illustrator 21.1.0, SVG Export Plug-In . SVG Version: 6.00 Build 0)  -->
<svg version="1.1" id="Capa_1" xmlns="http://www.w3.org/2000/svg" xmlns:xlink="http://www.w3.org/1999/xlink" x="0px" y="0px"
	 viewBox="0 0 513.2 516" style="enable-background:new 0 0 513.2 516;" xml:space="preserve">
<style type="text/css">
	.st0{fill:#EB212D;}
	.st1{fill:#262626;}
</style>
<rect x="40.6" y="90" class="st0" width="464" height="336"/>
<g>
	<path class="st1" d="M344.6,426h-16v16h-16v16h80v8c0,13.2-10.8,24-24,24H80.4c5.1-6.7,8.2-15,8.2-24v-8h208v-16h-224v24
		c0,13.2-10.8,24-24,24s-24-10.8-24-24V50c0-13.2,10.8-24,24-24s24,10.8,24,24v24h256v16h16V74h64V50c0-22.1-17.9-40-40-40h-320
		c-22.1,0-40,17.9-40,40v416c0,22.1,17.9,40,40,40h320c22.1,0,40-17.9,40-40v-24h-64V426z M368.6,26c13.2,0,24,10.8,24,24v8h-304v-8
		c0-9-3-17.3-8-24H368.6z"/>
	<polygon class="st1" points="280.6,122 264.6,122 264.6,130 136.6,130 136.6,122 120.6,122 120.6,154 136.6,154 136.6,146 
		264.6,146 264.6,154 280.6,154 	"/>
	<polygon class="st1" points="360.6,378 360.6,394 392.6,394 392.6,378 384.6,378 384.6,250 392.6,250 392.6,234 360.6,234 
		360.6,250 368.6,250 368.6,378 	"/>
	<path class="st1" d="M120.6,394h160v-88h-80v-72h-80V394z M136.6,282h48v32v8v56h-48V282z M264.6,322v56h-64v-56H264.6z M184.6,250
		v16h-48v-16H184.6z"/>
	<rect x="120.6" y="170" class="st1" width="16" height="16"/>
	<rect x="264.6" y="170" class="st1" width="16" height="16"/>
	<rect x="328.6" y="234" class="st1" width="16" height="16"/>
	<rect x="328.6" y="378" class="st1" width="16" height="16"/>
	<rect x="264.6" y="202" class="st1" width="16" height="16"/>
	<rect x="296.6" y="234" class="st1" width="16" height="16"/>
	<rect x="296.6" y="378" class="st1" width="16" height="16"/>
	<rect x="120.6" y="202" class="st1" width="16" height="16"/>
	<rect x="344.6" y="122" class="st1" width="96" height="16"/>
	<rect x="424.6" y="154" class="st1" width="16" height="16"/>
	<rect x="344.6" y="154" class="st1" width="64" height="16"/>
</g>
</svg>
