<?xml version="1.0" encoding="utf-8"?>
<!-- Generator: Adobe Illustrator 21.1.0, SVG Export Plug-In . SVG Version: 6.00 Build 0)  -->
<svg version="1.1" id="Layer_1" xmlns="http://www.w3.org/2000/svg" xmlns:xlink="http://www.w3.org/1999/xlink" x="0px" y="0px"
	 viewBox="0 0 534.2 402" style="enable-background:new 0 0 534.2 402;" xml:space="preserve">
<style type="text/css">
	.st0{fill:#EB212D;}
	.st1{fill:#262626;}
</style>
<rect x="373.1" y="187.9" class="st0" width="147.9" height="147.9"/>
<path class="st1" d="M239.1,336.5c-3.2,0-6.3,1.3-8.6,3.6c-2.3,2.3-3.6,5.4-3.6,8.6s1.3,6.3,3.6,8.6c2.3,2.3,5.4,3.6,8.6,3.6
	c3.2,0,6.3-1.3,8.6-3.5s3.6-5.4,3.6-8.6s-1.3-6.3-3.6-8.6C245.4,337.8,242.3,336.5,239.1,336.5z"/>
<path class="st1" d="M57.1,336.5c-3.2,0-6.3,1.3-8.6,3.6c-2.3,2.3-3.6,5.4-3.6,8.6s1.3,6.3,3.6,8.6c2.3,2.3,5.4,3.6,8.6,3.6
	s6.3-1.3,8.6-3.6c2.3-2.3,3.6-5.4,3.6-8.6s-1.3-6.3-3.6-8.6S60.3,336.5,57.1,336.5z"/>
<rect x="333.1" y="121.6" class="st1" width="15.9" height="15.9"/>
<rect x="348.2" y="376.7" class="st1" width="15.9" height="15.9"/>
<rect x="425.5" y="211.4" class="st1" width="15.9" height="15.9"/>
<rect x="425.5" y="243.2" class="st1" width="15.9" height="71.2"/>
<rect x="41.2" y="240.2" class="st1" width="15.9" height="15.9"/>
<rect x="41.2" y="208.4" class="st1" width="15.9" height="15.9"/>
<rect x="393.7" y="211.4" class="st1" width="15.9" height="71.2"/>
<path class="st1" d="M308.1,376.7H273l2.3-3.3c5-7.3,7.7-15.9,7.7-24.8c0-24.2-19.7-43.9-43.9-43.9s-43.9,19.7-43.9,43.9
	c0,8.9,2.7,17.5,7.7,24.8l2.3,3.3H91l2.3-3.3c5-7.3,7.7-15.9,7.7-24.8c0-24.2-19.7-43.9-43.9-43.9s-43.9,19.7-43.9,43.9
	c0,9,2.7,17.6,7.8,25l1.9,2.7l-2.2,0.4h-7.5v15.9h15.9v-0.1h279v0.1H324v-15.9L308.1,376.7L308.1,376.7z M57.1,376.7
	c-15.5,0-28.1-12.6-28.1-28.1s12.6-28.1,28.1-28.1s28.1,12.6,28.1,28.1S72.6,376.7,57.1,376.7z M239.1,376.7
	c-15.5,0-28.1-12.6-28.1-28.1s12.6-28.1,28.1-28.1s28.1,12.6,28.1,28.1S254.6,376.7,239.1,376.7z"/>
<path class="st1" d="M373.1,335.8H349V171.9h0.1V156h-15.9v15.9h0.1v163.9H309v-0.1V26v-0.1h24.2V26h0.1v58.6h-0.1v15.9H349V84.6
	l0,0V26h0.1V10.1h-7.9h-7.9H309h-7.9h-8V26h0.1v182L230.1,48.8c-4.1-10.3-13.9-17-25-17h-84.9c-14.9,0-26.9,12.1-26.9,26.9V173H21.1
	c-4.3,0-7.9,3.5-7.9,7.9v113.6v7.6v8.1H29V302v-7.6v-10.7h48.6l37,47.9c1.5,1.9,3.8,3.1,6.2,3.1h53.8c2.4,0,4.7-1.1,6.2-3l29.1-37.5
	h83.3v41.5h-0.1v15.9h8h7.9h196.1h8h7.9v-7.9v-7.9H373.1L373.1,335.8z M109,58.7c0-6.2,5-11.2,11.2-11.2H205c4.6,0,8.7,2.8,10.4,7.1
	l71.5,180.2h-25.4L219,192.3l5.9-5.9c3.1-3.1,3.1-8.1,0-11.1c-3.1-3.1-8.1-3.1-11.1,0l-22,22c-1.5,1.5-2.3,3.5-2.3,5.6
	s0.8,4.1,2.3,5.6s3.5,2.3,5.6,2.3s4.1-0.8,5.6-2.3l5-4.9l31.3,31.3h-75.6L109,176.6V58.7z M293.2,278.4h-87.1c-2.4,0-4.7,1.1-6.2,3
	l-29.1,37.5h-46.1l-37-47.9c-1.5-1.9-3.8-3.1-6.2-3.1H29v-79.2h69.7l55.8,59.4c1.5,1.6,3.6,2.5,5.7,2.5h133V278.4z"/>
<rect x="393.7" y="298.5" class="st1" width="15.9" height="15.9"/>
</svg>
