<?xml version="1.0" encoding="utf-8"?>
<!-- Generator: Adobe Illustrator 21.1.0, SVG Export Plug-In . SVG Version: 6.00 Build 0)  -->
<svg version="1.1" id="Capa_1" xmlns="http://www.w3.org/2000/svg" xmlns:xlink="http://www.w3.org/1999/xlink" x="0px" y="0px"
	 viewBox="0 0 512 506.2" style="enable-background:new 0 0 512 506.2;" xml:space="preserve">
<style type="text/css">
	.st0{fill:#EB212D;}
	.st1{fill:#262626;}
</style>
<path class="st0" d="M385.8,133.1c-2.5-8.2-5.8-16-9.7-23.5l27-27L346.5,26l-27,27c-7.5-4-15.4-7.2-23.5-9.7V5.1h-80v38.2
	c-8.2,2.5-16,5.8-23.5,9.7l-27-27l-56.6,56.6l27,27c-4,7.5-7.2,15.4-9.7,23.5H88v80h40v-24c0-8.8,7.2-16,16-16h32
	c0-44.2,35.8-80,80-80s80,35.8,80,80h32c8.8,0,16,7.2,16,16v24h40v-80H385.8z"/>
<g>
	<path class="st1" d="M368,165.1h-24.4c-4.1-44.8-41.8-80-87.6-80s-83.5,35.2-87.6,80H144c-13.2,0-24,10.8-24,24v288
		c0,13.2,10.8,24,24,24h224c13.2,0,24-10.8,24-24v-288C392,175.9,381.2,165.1,368,165.1z M376,477.1c0,4.4-3.6,8-8,8H144
		c-4.4,0-8-3.6-8-8v-288c0-4.4,3.6-8,8-8h152v-16H184.5c4-35.9,34.5-64,71.5-64s67.5,28.1,71.5,64H312v16h56c4.4,0,8,3.6,8,8V477.1z
		"/>
	<path class="st1" d="M152,277.1h208v-80H152V277.1z M168,213.1h176v48H168V213.1z"/>
	<rect x="168" y="293.1" class="st1" width="16" height="16"/>
	<rect x="200" y="293.1" class="st1" width="16" height="16"/>
	<rect x="296" y="293.1" class="st1" width="48" height="16"/>
	<path class="st1" d="M152,469.1h208v-144H152V469.1z M168,405.1h48v48h-48V405.1z M280,405.1v48h-48v-48H280z M232,389.1v-48h48v48
		H232z M296,453.1v-48h48v48H296z M344,389.1h-48v-48h48V389.1z M216,341.1v48h-48v-48H216z"/>
	<path class="st1" d="M53.1,140.8c1,0.1,1.9,0.3,2.9,0.3c13.2,0,24-10.8,24-24s-10.8-24-24-24s-24,10.8-24,24
		c0,6.4,2.6,12.3,6.7,16.6C18.7,170.1,8,211.3,8,253.1c0,19.7,2.3,39.4,6.9,58.4l15.6-3.8C26.2,290,24,271.6,24,253.1
		C24,213.7,34.1,175,53.1,140.8z M56,109.1c4.4,0,8,3.6,8,8s-3.6,8-8,8s-8-3.6-8-8S51.6,109.1,56,109.1z"/>
	<path class="st1" d="M504,253.1c0-13.8-1.1-27.6-3.4-41.1l-15.8,2.6c2.1,12.6,3.2,25.6,3.2,38.5c0,42.9-11.8,84.5-34.1,120.8
		c-1.9-0.5-3.9-0.8-5.9-0.8c-13.2,0-24,10.8-24,24s10.8,24,24,24s24-10.8,24-24c0-5.4-1.8-10.2-4.8-14.2
		C491.2,343.9,504,299.2,504,253.1z M448,405.1c-4.4,0-8-3.6-8-8s3.6-8,8-8s8,3.6,8,8S452.4,405.1,448,405.1z"/>
	<rect x="56" y="357.1" class="st1" width="16" height="16"/>
	<rect x="56" y="389.1" class="st1" width="16" height="16"/>
	<rect x="56" y="421.1" class="st1" width="16" height="16"/>
	<rect x="448" y="69.1" class="st1" width="16" height="16"/>
	<rect x="448" y="101.1" class="st1" width="16" height="16"/>
	<rect x="448" y="133.1" class="st1" width="16" height="16"/>
	<path class="st1" d="M456,53.1c13.2,0,24-10.8,24-24s-10.8-24-24-24s-24,10.8-24,24S442.8,53.1,456,53.1z M456,21.1
		c4.4,0,8,3.6,8,8s-3.6,8-8,8s-8-3.6-8-8S451.6,21.1,456,21.1z"/>
	<path class="st1" d="M64,453.1c-13.2,0-24,10.8-24,24s10.8,24,24,24s24-10.8,24-24S77.2,453.1,64,453.1z M64,485.1
		c-4.4,0-8-3.6-8-8s3.6-8,8-8s8,3.6,8,8S68.4,485.1,64,485.1z"/>
</g>
</svg>
