<?xml version="1.0" encoding="utf-8"?>
<!-- Generator: Adobe Illustrator 21.1.0, SVG Export Plug-In . SVG Version: 6.00 Build 0)  -->
<svg version="1.1" id="Capa_1" xmlns="http://www.w3.org/2000/svg" xmlns:xlink="http://www.w3.org/1999/xlink" x="0px" y="0px"
	 viewBox="0 0 510.2 513.8" style="enable-background:new 0 0 510.2 513.8;" xml:space="preserve">
<style type="text/css">
	.st0{fill:#EB212D;}
	.st1{fill:#262626;}
</style>
<g>
	<circle class="st0" cx="351.1" cy="280.9" r="48"/>
	<path class="st0" d="M191.1,376.9h-48v-19.7c-4.5-1.4-8.8-3.2-13-5.4l-14,14l-33.9-33.9l14-14c-2.2-4.2-4-8.5-5.4-13H71.1v-48h19.7
		c1.4-4.5,3.2-8.8,5.4-13l-14-14l33.9-33.9l14,14c4.2-2.2,8.5-4,13-5.4v-19.7h48v19.7c4.5,1.4,8.8,3.2,13,5.4l14-14l33.9,33.9
		l-14,14c2.2,4.2,4,8.5,5.4,13h19.7v48h-19.7c-1.4,4.5-3.2,8.8-5.4,13l14,14L218,365.7l-14-14c-4.2,2.2-8.5,4-13,5.4V376.9z"/>
</g>
<g>
	<rect x="207.1" y="456.9" class="st1" width="96" height="16"/>
	<path class="st1" d="M503.1,88.9h-80v-40c0-22.1-17.9-40-40-40h-256c-22.1,0-40,17.9-40,40v40h-80v320h80v56c0,22.1,17.9,40,40,40
		h256c22.1,0,40-17.9,40-40v-56h80V88.9z M127.1,24.9h256c13.2,0,24,10.8,24,24v8h-304v-8C103.1,35.7,113.8,24.9,127.1,24.9z
		 M103.1,72.9h304v16h-304V72.9z M487.1,104.9v48h-464v-48H487.1z M383.1,488.9h-256c-13.2,0-24-10.8-24-24v-24h304v24
		C407.1,478.1,396.3,488.9,383.1,488.9z M391.1,392.9v16h16v16h-304v-16h272v-16h-352v-224h464v224H391.1z"/>
	<rect x="39.1" y="120.9" class="st1" width="16" height="16"/>
	<rect x="71.1" y="120.9" class="st1" width="16" height="16"/>
	<rect x="103.1" y="120.9" class="st1" width="16" height="16"/>
	<path class="st1" d="M167.1,232.9c-26.5,0-48,21.5-48,48c0,26.5,21.5,48,48,48s48-21.5,48-48S193.5,232.9,167.1,232.9z
		 M167.1,312.9c-17.6,0-32-14.4-32-32s14.4-32,32-32s32,14.4,32,32S184.7,312.9,167.1,312.9z"/>
	<path class="st1" d="M351.1,256.9c-13.2,0-24,10.8-24,24s10.8,24,24,24s24-10.8,24-24S364.3,256.9,351.1,256.9z M351.1,288.9
		c-4.4,0-8-3.6-8-8s3.6-8,8-8s8,3.6,8,8S355.5,288.9,351.1,288.9z"/>
	<path class="st1" d="M403,260.1l14.4-8.3l-8-13.9l-14.4,8.3c-2.7-3.5-5.9-6.6-9.3-9.3l8.3-14.4l-13.9-8l-8.3,14.4
		c-4-1.6-8.3-2.8-12.8-3.4v-16.6h-16v16.6c-4.4,0.6-8.7,1.8-12.8,3.4l-8.3-14.4l-13.9,8l8.3,14.4c-3.5,2.7-6.6,5.9-9.3,9.3
		l-14.4-8.3l-8,13.9l14.4,8.3c-1.6,4-2.8,8.3-3.4,12.8h-16.6v16h16.6c0.6,4.4,1.8,8.7,3.4,12.8l-14.4,8.3l8,13.9l14.4-8.3
		c2.7,3.5,5.9,6.6,9.3,9.3l-8.3,14.4l13.9,8l8.3-14.4c4,1.6,8.3,2.8,12.8,3.4v16.6h16v-16.6c4.4-0.6,8.7-1.8,12.8-3.4l8.3,14.4
		l13.9-8l-8.3-14.4c3.5-2.7,6.6-5.9,9.3-9.3l14.4,8.3l8-13.9l-14.4-8.3c1.6-4,2.8-8.3,3.4-12.8h16.6v-16h-16.6
		C405.8,268.5,404.7,264.2,403,260.1z M391.1,280.9c0,22.1-17.9,40-40,40s-40-17.9-40-40s17.9-40,40-40S391.1,258.8,391.1,280.9z"/>
	<rect x="247.1" y="184.9" class="st1" width="16" height="16"/>
	<rect x="279.1" y="184.9" class="st1" width="16" height="16"/>
	<rect x="247.1" y="360.9" class="st1" width="16" height="16"/>
	<rect x="279.1" y="360.9" class="st1" width="16" height="16"/>
</g>
</svg>
