<?xml version="1.0" encoding="utf-8"?>
<!-- Generator: Adobe Illustrator 21.1.0, SVG Export Plug-In . SVG Version: 6.00 Build 0)  -->
<svg version="1.1" id="Capa_1" xmlns="http://www.w3.org/2000/svg" xmlns:xlink="http://www.w3.org/1999/xlink" x="0px" y="0px"
	 viewBox="0 0 513.2 513" style="enable-background:new 0 0 513.2 513;" xml:space="preserve">
<style type="text/css">
	.st0{fill:#EB212D;}
	.st1{fill:#262626;}
</style>
<g>
	<path class="st0" d="M120.6,504.5H8.6v-112h112V504.5z"/>
	<path class="st0" d="M504.6,504.5h-112v-112h112V504.5z"/>
	<path class="st0" d="M312.6,504.5h-112v-112h112V504.5z"/>
</g>
<g>
	<path class="st1" d="M256.6,200.5c26.5,0,48-21.5,48-48s-21.5-48-48-48s-48,21.5-48,48S230.1,200.5,256.6,200.5z M256.6,120.5
		c17.6,0,32,14.4,32,32s-14.4,32-32,32s-32-14.4-32-32S238.9,120.5,256.6,120.5z"/>
	<rect x="40.6" y="424.5" class="st1" width="48" height="16"/>
	<rect x="40.6" y="456.5" class="st1" width="48" height="16"/>
	<rect x="424.6" y="424.5" class="st1" width="48" height="16"/>
	<rect x="456.6" y="456.5" class="st1" width="16" height="16"/>
	<rect x="424.6" y="456.5" class="st1" width="16" height="16"/>
	<rect x="232.6" y="424.5" class="st1" width="48" height="16"/>
	<rect x="232.6" y="456.5" class="st1" width="48" height="16"/>
	<path class="st1" d="M456.6,392.5v-24c0-13.2-10.8-24-24-24h-168v-48h-16v48h-168c-13.2,0-24,10.8-24,24v24h16v-24c0-4.4,3.6-8,8-8
		h168v32h16v-32h168c4.4,0,8,3.6,8,8v24H456.6z"/>
	<path class="st1" d="M56.6,248.5c0-10.4-6.7-19.2-16-22.5V80.5c0-4.4,3.6-8,8-8H74c3.3,9.3,12.1,16,22.5,16c13.2,0,24-10.8,24-24
		s-10.8-24-24-24c-10.4,0-19.2,6.7-22.5,16H48.6c-13.2,0-24,10.8-24,24V226c-9.3,3.3-16,12.1-16,22.5c0,13.2,10.8,24,24,24
		S56.6,261.7,56.6,248.5z M96.6,56.5c4.4,0,8,3.6,8,8s-3.6,8-8,8s-8-3.6-8-8S92.2,56.5,96.6,56.5z M32.6,256.5c-4.4,0-8-3.6-8-8
		s3.6-8,8-8s8,3.6,8,8S37,256.5,32.6,256.5z"/>
	<rect x="56.6" y="104.5" class="st1" width="16" height="16"/>
	<rect x="56.6" y="136.5" class="st1" width="16" height="16"/>
	<rect x="56.6" y="168.5" class="st1" width="16" height="16"/>
	<path class="st1" d="M504.6,104.5c0-13.2-10.8-24-24-24s-24,10.8-24,24c0,10.4,6.7,19.2,16,22.5v145.5c0,4.4-3.6,8-8,8h-25.5
		c-3.3-9.3-12.1-16-22.5-16c-13.2,0-24,10.8-24,24s10.8,24,24,24c10.4,0,19.2-6.7,22.5-16h25.5c13.2,0,24-10.8,24-24V127
		C497.9,123.7,504.6,114.9,504.6,104.5z M416.6,296.5c-4.4,0-8-3.6-8-8s3.6-8,8-8s8,3.6,8,8S421,296.5,416.6,296.5z M480.6,112.5
		c-4.4,0-8-3.6-8-8s3.6-8,8-8s8,3.6,8,8S485,112.5,480.6,112.5z"/>
	<rect x="440.6" y="232.5" class="st1" width="16" height="16"/>
	<rect x="440.6" y="200.5" class="st1" width="16" height="16"/>
	<rect x="440.6" y="168.5" class="st1" width="16" height="16"/>
</g>
<path class="st0" d="M400.6,184.5v-64h-36.8c-2.2-7.3-5.1-14.4-8.8-21.2l26-26l-45.3-45.3l-26,26c-6.8-3.7-13.8-6.6-21.2-8.8V8.5
	h-64v36.8c-7.3,2.2-14.4,5.1-21.2,8.8l-26-26l-45.3,45.3l26,26c-3.7,6.8-6.6,13.8-8.8,21.2h-36.8v64h36.8c2.2,7.3,5.1,14.4,8.8,21.2
	l-26,26l45.3,45.3l26-26c6.8,3.7,13.8,6.6,21.2,8.8v36.8h64v-36.8c7.3-2.2,14.4-5.1,21.2-8.8l26,26l45.3-45.3l-26-26
	c3.7-6.8,6.6-13.8,8.8-21.2H400.6z M256.6,216.5c-35.3,0-64-28.7-64-64s28.7-64,64-64s64,28.7,64,64S291.9,216.5,256.6,216.5z"/>
</svg>
