<?xml version="1.0" encoding="utf-8"?>
<!-- Generator: Adobe Illustrator 21.1.0, SVG Export Plug-In . SVG Version: 6.00 Build 0)  -->
<svg version="1.1" id="Capa_1" xmlns="http://www.w3.org/2000/svg" xmlns:xlink="http://www.w3.org/1999/xlink" x="0px" y="0px"
	 viewBox="0 0 100 140" style="enable-background:new 0 0 100 140;" xml:space="preserve">
<style type="text/css">
	.st0{fill:#EB212D;}
	.st1{fill:#BB1924;}
	.st2{fill:#FFFFFF;}
</style>
<polygon class="st0" points="100,140 0,140 0,0 70,0 100,30 "/>
<polygon class="st1" points="70,30 100,30 70,0 "/>
<g>
	<g>
		<g>
			<path class="st2" d="M79.1,59.1c0.8,0,1.4-0.6,1.4-1.4v-7.2c0-2.3-1.8-4.1-4.1-4.1H21.9c-2.3,0-4.1,1.8-4.1,4.1v61.8
				c0,2.3,1.8,4.1,4.1,4.1h54.4c2.3,0,4.1-1.8,4.1-4.1v-3.8c0-0.8-0.6-1.4-1.4-1.4c-0.8,0-1.4,0.6-1.4,1.4v3.8
				c0,0.8-0.6,1.4-1.4,1.4H21.9c-0.8,0-1.4-0.6-1.4-1.4V50.4c0-0.8,0.6-1.4,1.4-1.4h54.4c0.8,0,1.4,0.6,1.4,1.4v7.2
				C77.7,58.4,78.3,59.1,79.1,59.1z"/>
		</g>
	</g>
	<g>
		<g>
			<path class="st2" d="M72.5,52.9H25.8c-0.8,0-1.4,0.6-1.4,1.4v28.6c0,0.8,0.6,1.4,1.4,1.4c0.8,0,1.4-0.6,1.4-1.4V55.6h44v2.2
				c0,0.8,0.6,1.4,1.4,1.4c0.8,0,1.4-0.6,1.4-1.4v-3.6C73.9,53.5,73.3,52.9,72.5,52.9z"/>
		</g>
	</g>
	<g>
		<g>
			<path class="st2" d="M26.7,86.9c-0.3-0.3-0.6-0.4-1-0.4c-0.4,0-0.7,0.1-1,0.4s-0.4,0.6-0.4,1c0,0.4,0.1,0.7,0.4,1s0.6,0.4,1,0.4
				c0.4,0,0.7-0.1,1-0.4c0.3-0.3,0.4-0.6,0.4-1C27.1,87.5,27,87.2,26.7,86.9z"/>
		</g>
	</g>
	<g>
		<g>
			<path class="st2" d="M72.5,104c-0.8,0-1.4,0.6-1.4,1.4v1.6h-44V93.2c0-0.8-0.6-1.4-1.4-1.4c-0.8,0-1.4,0.6-1.4,1.4v15.2
				c0,0.8,0.6,1.4,1.4,1.4h46.8c0.8,0,1.4-0.6,1.4-1.4v-3C73.9,104.6,73.3,104,72.5,104z"/>
		</g>
	</g>
	<g>
		<g>
			<path class="st2" d="M60.2,94.6c-0.5-0.5-1.4-0.5-1.9,0l-2.7,2.7l-1.7-1.7c-1.1-1.1-2.8-1.1-3.8,0L49,96.8
				c-0.5,0.5-0.5,1.4,0,1.9c0.5,0.5,1.4,0.5,1.9,0l1.1-1.1l1.7,1.7c0.5,0.5,1.2,0.8,1.9,0.8c0.7,0,1.4-0.3,1.9-0.8l2.7-2.7
				C60.7,96,60.7,95.2,60.2,94.6z"/>
		</g>
	</g>
	<g>
		<g>
			<path class="st2" d="M87.2,75c0.6-0.9,0.8-2.1,0.5-3.2s-1-2-2-2.5c-0.4-0.2-0.7-0.7-0.7-1.2c0.1-1.1-0.4-2.2-1.2-3
				c-0.8-0.8-1.9-1.2-3-1.2c-0.5,0-0.9-0.2-1.2-0.7c-0.5-1-1.4-1.7-2.5-2C76.1,61,75,61.2,74,61.8c-0.4,0.3-0.9,0.3-1.3,0
				c-0.9-0.6-2.1-0.8-3.2-0.5c-1.1,0.3-2,1-2.5,2c-0.2,0.4-0.7,0.7-1.2,0.7c-1.1-0.1-2.2,0.4-3,1.2c-0.8,0.8-1.2,1.9-1.2,3
				c0,0.5-0.2,0.9-0.7,1.2c-1,0.5-1.7,1.4-2,2.5c-0.1,0.5-0.2,1-0.1,1.6H35c-0.8,0-1.4,0.6-1.4,1.4s0.6,1.4,1.4,1.4h24.6
				c0,0.1-0.1,0.1-0.1,0.2c-0.6,0.9-0.8,2.1-0.5,3.2c0,0.1,0.1,0.3,0.1,0.4H35c-0.8,0-1.4,0.6-1.4,1.4s0.6,1.4,1.4,1.4h26.6
				c0.1,0.2,0.1,0.3,0.1,0.5c-0.1,1.1,0.4,2.2,1.2,3c0.8,0.8,1.9,1.2,3,1.2c0.5,0,0.9,0.2,1.2,0.7c0.2,0.3,0.4,0.6,0.6,0.9v12.8
				c0,0.6,0.3,1.1,0.8,1.3c0.5,0.2,1.1,0.1,1.5-0.3l3.4-3.4l3.4,3.4c0.3,0.3,0.6,0.4,1,0.4c0.2,0,0.4,0,0.5-0.1
				c0.5-0.2,0.8-0.7,0.8-1.3V88.9c0.2-0.3,0.4-0.5,0.6-0.9c0.2-0.4,0.7-0.7,1.2-0.7c1.1,0.1,2.2-0.4,3-1.2c0.8-0.8,1.2-1.9,1.2-3
				c0-0.5,0.2-0.9,0.7-1.2c1-0.5,1.7-1.4,2-2.5c0.3-1.1,0.1-2.2-0.5-3.2C86.9,76,86.9,75.4,87.2,75z M76.4,98.4l-2-2
				c-0.5-0.5-1.4-0.5-1.9,0l-2,2v-8.2c0.8,0,1.6-0.2,2.3-0.6c0.4-0.3,0.9-0.3,1.3,0c0.6,0.4,1.4,0.6,2.1,0.6c0.1,0,0.1,0,0.2,0
				L76.4,98.4L76.4,98.4z M85.1,78.8c-0.1,0.3-0.3,0.6-0.6,0.8c-1.4,0.7-2.2,2.2-2.1,3.7c0,0.4-0.1,0.7-0.4,0.9
				c-0.3,0.3-0.6,0.4-0.9,0.4c-1.5-0.1-3,0.8-3.7,2.1c-0.2,0.3-0.4,0.5-0.8,0.6c-0.3,0.1-0.7,0-1-0.2c-0.7-0.4-1.4-0.6-2.1-0.6
				c-0.7,0-1.5,0.2-2.1,0.6c-0.3,0.2-0.7,0.2-1,0.2c-0.3-0.1-0.6-0.3-0.8-0.6c-0.7-1.4-2.2-2.2-3.7-2.1c-0.4,0-0.7-0.1-0.9-0.4
				c-0.3-0.3-0.4-0.6-0.4-0.9c0.1-1.1-0.4-2.1-1.1-2.9c0,0,0,0-0.1-0.1c-0.3-0.3-0.6-0.5-1-0.7c-0.3-0.2-0.5-0.4-0.6-0.8
				s0-0.7,0.2-1c0.8-1.3,0.8-3,0-4.3c-0.2-0.3-0.2-0.7-0.2-1c0.1-0.3,0.3-0.6,0.6-0.8c1.4-0.7,2.2-2.2,2.1-3.7
				c0-0.4,0.1-0.7,0.4-0.9c0.3-0.3,0.6-0.4,0.9-0.4c1.5,0.1,3-0.8,3.7-2.1c0.2-0.3,0.4-0.5,0.8-0.6c0.3-0.1,0.7,0,1,0.2
				c1.3,0.8,3,0.8,4.3,0c0.3-0.2,0.7-0.2,1-0.2c0.3,0.1,0.6,0.3,0.8,0.6c0.7,1.4,2.2,2.2,3.7,2.1c0.4,0,0.7,0.1,0.9,0.4
				c0.3,0.3,0.4,0.6,0.4,0.9c-0.1,1.5,0.8,3,2.1,3.7c0.3,0.2,0.5,0.4,0.6,0.8c0.1,0.3,0,0.7-0.2,1c-0.8,1.3-0.8,3,0,4.3
				C85.1,78.1,85.1,78.5,85.1,78.8z"/>
		</g>
	</g>
	<g>
		<g>
			<path class="st2" d="M79.8,72c-0.5-0.5-1.4-0.5-1.9,0l-4.5,4.5l-1.8-1.8c-0.5-0.5-1.4-0.5-1.9,0c-0.5,0.5-0.5,1.4,0,1.9l2.8,2.8
				c0.3,0.3,0.6,0.4,1,0.4c0.3,0,0.7-0.1,1-0.4l5.5-5.5C80.4,73.4,80.4,72.5,79.8,72z"/>
		</g>
	</g>
	<g>
		<g>
			<path class="st2" d="M34.5,62.9c-0.3-0.3-0.6-0.4-1-0.4s-0.7,0.1-1,0.4c-0.3,0.3-0.4,0.6-0.4,1s0.1,0.7,0.4,1
				c0.3,0.3,0.6,0.4,1,0.4s0.7-0.1,1-0.4c0.3-0.3,0.4-0.6,0.4-1S34.8,63.1,34.5,62.9z"/>
		</g>
	</g>
	<g>
		<g>
			<path class="st2" d="M45.3,62.5h-6.7c-0.8,0-1.4,0.6-1.4,1.4c0,0.8,0.6,1.4,1.4,1.4h6.7c0.8,0,1.4-0.6,1.4-1.4
				C46.7,63.1,46.1,62.5,45.3,62.5z"/>
		</g>
	</g>
	<g>
		<g>
			<path class="st2" d="M59.2,86.5H43.6c-0.8,0-1.4,0.6-1.4,1.4c0,0.8,0.6,1.4,1.4,1.4h15.6c0.8,0,1.4-0.6,1.4-1.4
				C60.6,87.1,60,86.5,59.2,86.5z"/>
		</g>
	</g>
</g>
</svg>
