<?xml version="1.0" encoding="utf-8"?>
<!-- Generator: Adobe Illustrator 21.1.0, SVG Export Plug-In . SVG Version: 6.00 Build 0)  -->
<svg version="1.1" id="Capa_1" xmlns="http://www.w3.org/2000/svg" xmlns:xlink="http://www.w3.org/1999/xlink" x="0px" y="0px"
	 viewBox="0 0 496 496" style="enable-background:new 0 0 496 496;" xml:space="preserve">
<style type="text/css">
	.st0{fill:#EB212D;}
	.st1{fill:#262626;}
</style>
<g>
	<path class="st0" d="M424,464c-22.1,0-40-17.9-40-40s17.9-40,40-40s40,17.9,40,40S446.1,464,424,464z"/>
	<path class="st0" d="M72,464c-22.1,0-40-17.9-40-40s17.9-40,40-40s40,17.9,40,40S94.1,464,72,464z"/>
	<path class="st0" d="M168,464c-22.1,0-40-17.9-40-40s17.9-40,40-40s40,17.9,40,40S190.1,464,168,464z"/>
</g>
<g>
	<path class="st1" d="M0,0v64h151.1c6.3,10.9,14.4,20.8,24.2,29.2L185.7,81c-19.4-16.5-31.1-39.9-33.2-65h191.1
		c-2.1,25.1-13.9,48.5-33.2,65l10.4,12.2c9.8-8.4,17.9-18.3,24.2-29.2H496V0H0z M16,16h16v32H16V16z M143.5,48H48V16h88.4
		C137.2,27.1,139.6,37.8,143.5,48z M359.6,16H448v32h-95.5C356.4,37.8,358.8,27.1,359.6,16z M480,48h-16V16h16V48z"/>
	<path class="st1" d="M448,136c0-13.2-10.8-24-24-24c-11.4,0-20.9,8-23.3,18.6l-66.3,13.6l3.2,15.7l64.9-13.3c3,6,8.4,10.6,15,12.5
		l12.7,50.7c-12.8,4.2-22.2,16.1-22.2,30.3h16c0-8.8,7.2-16,16-16s16,7.2,16,16h16c0-15.4-11-28.4-25.6-31.4l-12.7-50.8
		C442.1,154.2,448,145.8,448,136z M424,128c4.4,0,8,3.6,8,8s-3.6,8-8,8s-8-3.6-8-8S419.6,128,424,128z"/>
	<path class="st1" d="M24,240h16c0-8.8,7.2-16,16-16s16,7.2,16,16h16c0-14.2-9.4-26.1-22.2-30.3L78.5,159c6.6-1.9,12-6.4,15-12.5
		l64.9,13.3l3.2-15.7l-66.3-13.6C92.9,120,83.4,112,72,112c-13.2,0-24,10.8-24,24c0,9.8,5.9,18.2,14.3,21.9l-12.7,50.8
		C35,211.6,24,224.6,24,240z M72,128c4.4,0,8,3.6,8,8s-3.6,8-8,8s-8-3.6-8-8S67.6,128,72,128z"/>
</g>
<path class="st0" d="M272,240h-48v-19.7c-4.5-1.4-8.8-3.2-13-5.4l-14,14l-33.9-33.9l14-14c-2.2-4.2-4-8.5-5.4-13H152v-48h19.7
	c1.4-4.5,3.2-8.8,5.4-13l-14-14l33.9-33.9l14,14c4.2-2.2,8.5-4,13-5.4V48h48v19.7c4.5,1.4,8.8,3.2,13,5.4l14-14l33.9,33.9l-14,14
	c2.2,4.2,4,8.5,5.4,13H344v48h-19.7c-1.4,4.5-3.2,8.8-5.4,13l14,14l-33.9,33.9l-14-14c-4.2,2.2-8.5,4-13,5.4V240z"/>
<g>
	<path class="st1" d="M296,144c0-26.5-21.5-48-48-48s-48,21.5-48,48s21.5,48,48,48S296,170.5,296,144z M216,144
		c0-17.6,14.4-32,32-32s32,14.4,32,32s-14.4,32-32,32S216,161.6,216,144z"/>
	<path class="st1" d="M424,352h-16.2c5.1-6.7,8.2-15,8.2-24c0-22.1-17.9-40-40-40s-40,17.9-40,40c0,9,3.1,17.3,8.2,24H312v-80H184
		v-16H72v96c-39.7,0-72,32.3-72,72s32.3,72,72,72h352c39.7,0,72-32.3,72-72S463.7,352,424,352z M352,328c0-13.2,10.8-24,24-24
		s24,10.8,24,24s-10.8,24-24,24S352,341.2,352,328z M296,352h-16v-16h-16v16h-16v-64h16v32h16v-32h16V352z M216,352v-64h16v64H216z
		 M200,288v64h-16v-64H200z M168,352h-16v-80h16V352z M120,352v-80h16v80H120z M88,272h16v80H88V272z M424,480H72
		c-30.9,0-56-25.1-56-56s25.1-56,56-56h352c30.9,0,56,25.1,56,56S454.9,480,424,480z"/>
	<rect x="216" y="384" class="st1" width="160" height="16"/>
	<rect x="216" y="448" class="st1" width="160" height="16"/>
	<path class="st1" d="M424,400c-13.2,0-24,10.8-24,24s10.8,24,24,24s24-10.8,24-24S437.2,400,424,400z M424,432c-4.4,0-8-3.6-8-8
		s3.6-8,8-8s8,3.6,8,8S428.4,432,424,432z"/>
	<path class="st1" d="M168,400c-13.2,0-24,10.8-24,24s10.8,24,24,24s24-10.8,24-24S181.2,400,168,400z M168,432c-4.4,0-8-3.6-8-8
		s3.6-8,8-8s8,3.6,8,8S172.4,432,168,432z"/>
	<path class="st1" d="M72,400c-13.2,0-24,10.8-24,24s10.8,24,24,24s24-10.8,24-24S85.2,400,72,400z M72,432c-4.4,0-8-3.6-8-8
		s3.6-8,8-8s8,3.6,8,8S76.4,432,72,432z"/>
</g>
</svg>
