<?xml version="1.0" encoding="utf-8"?>
<!-- Generator: Adobe Illustrator 21.1.0, SVG Export Plug-In . SVG Version: 6.00 Build 0)  -->
<svg version="1.1" id="Layer_1" xmlns="http://www.w3.org/2000/svg" xmlns:xlink="http://www.w3.org/1999/xlink" x="0px" y="0px"
	 viewBox="0 0 620 325" style="enable-background:new 0 0 620 325;" xml:space="preserve">
<style type="text/css">
	.st0{fill:url(#SVGID_1_);}
	.st1{fill:url(#SVGID_2_);}
	.st2{fill:url(#SVGID_3_);}
	.st3{fill:url(#SVGID_4_);}
	.st4{fill:url(#SVGID_5_);}
</style>
<g>
	<linearGradient id="SVGID_1_" gradientUnits="userSpaceOnUse" x1="377.8268" y1="270.1066" x2="377.8268" y2="54.9531">
		<stop  offset="0" style="stop-color:#999999"/>
		<stop  offset="0.2622" style="stop-color:#CCCCCC"/>
		<stop  offset="0.5" style="stop-color:#999999"/>
		<stop  offset="0.7757" style="stop-color:#E6E6E6"/>
		<stop  offset="1" style="stop-color:#999999"/>
	</linearGradient>
	<path class="st0" d="M509,162.5c0-38.6-21.9-70.4-50.3-75v-0.1L247.1,55l-0.4,215.2l212-32.6v0C487.1,232.9,509,201.1,509,162.5z"
		/>
	<linearGradient id="SVGID_2_" gradientUnits="userSpaceOnUse" x1="240.8858" y1="270.5225" x2="240.8858" y2="54.4775">
		<stop  offset="0" style="stop-color:#E6E6E6"/>
		<stop  offset="0.5" style="stop-color:#E6E6E6"/>
		<stop  offset="1" style="stop-color:#F2F2F2"/>
	</linearGradient>
	<ellipse class="st1" cx="240.9" cy="162.5" rx="65.3" ry="108"/>
	<linearGradient id="SVGID_3_" gradientUnits="userSpaceOnUse" x1="219.8747" y1="249.0742" x2="219.8747" y2="71.5225">
		<stop  offset="0" style="stop-color:#999999"/>
		<stop  offset="0.2622" style="stop-color:#CCCCCC"/>
		<stop  offset="0.5" style="stop-color:#999999"/>
		<stop  offset="0.7757" style="stop-color:#E6E6E6"/>
		<stop  offset="1" style="stop-color:#999999"/>
	</linearGradient>
	<path class="st2" d="M239.8,78.8L157,71.5v177.6l82.8-7.2c23.7,0,42.9-36.5,42.9-81.5C282.7,115.3,263.5,78.8,239.8,78.8z"/>
	<linearGradient id="SVGID_4_" gradientUnits="userSpaceOnUse" x1="157.0214" y1="249.0742" x2="157.0214" y2="71.5225">
		<stop  offset="0" style="stop-color:#E6E6E6"/>
		<stop  offset="0.5" style="stop-color:#E6E6E6"/>
		<stop  offset="1" style="stop-color:#F2F2F2"/>
	</linearGradient>
	<ellipse class="st3" cx="157" cy="160.3" rx="46" ry="88.8"/>
	<linearGradient id="SVGID_5_" gradientUnits="userSpaceOnUse" x1="157.0214" y1="205.1835" x2="157.0214" y2="115.4133">
		<stop  offset="0" style="stop-color:#999999"/>
		<stop  offset="0.5" style="stop-color:#CCCCCC"/>
		<stop  offset="1" style="stop-color:#999999"/>
	</linearGradient>
	<ellipse class="st4" cx="157" cy="160.3" rx="23.3" ry="44.9"/>
</g>
</svg>
