<?xml version="1.0" encoding="utf-8"?>
<!-- Generator: Adobe Illustrator 21.1.0, SVG Export Plug-In . SVG Version: 6.00 Build 0)  -->
<svg version="1.1" id="Layer_1" xmlns="http://www.w3.org/2000/svg" xmlns:xlink="http://www.w3.org/1999/xlink" x="0px" y="0px"
	 viewBox="0 0 620 325" style="enable-background:new 0 0 620 325;" xml:space="preserve">
<style type="text/css">
	.st0{fill:url(#SVGID_1_);}
	.st1{fill:url(#SVGID_2_);}
	.st2{fill:url(#SVGID_3_);}
	.st3{fill:url(#SVGID_4_);}
	.st4{fill:url(#SVGID_5_);}
	.st5{fill:url(#SVGID_6_);}
	.st6{fill:url(#SVGID_7_);}
	.st7{fill:url(#SVGID_8_);}
</style>
<g>
	<linearGradient id="SVGID_1_" gradientUnits="userSpaceOnUse" x1="465.072" y1="244.1666" x2="465.072" y2="80.8333">
		<stop  offset="0" style="stop-color:#999999"/>
		<stop  offset="0.2622" style="stop-color:#CCCCCC"/>
		<stop  offset="0.5" style="stop-color:#999999"/>
		<stop  offset="0.7757" style="stop-color:#E6E6E6"/>
		<stop  offset="1" style="stop-color:#999999"/>
	</linearGradient>
	<path class="st0" d="M483.9,91.2l-91.4-10.3v163.3l91.4-10.3c29.6,0,53.7-31.9,53.7-71.3S513.6,91.2,483.9,91.2z"/>
	<linearGradient id="SVGID_2_" gradientUnits="userSpaceOnUse" x1="392.5335" y1="244.1667" x2="392.5335" y2="80.8333">
		<stop  offset="0" style="stop-color:#E6E6E6"/>
		<stop  offset="0.1108" style="stop-color:#F2F2F2"/>
		<stop  offset="0.2622" style="stop-color:#CCCCCC"/>
		<stop  offset="0.5" style="stop-color:#E6E6E6"/>
		<stop  offset="0.7757" style="stop-color:#F2F2F2"/>
		<stop  offset="0.9162" style="stop-color:#F2F2F2"/>
		<stop  offset="1" style="stop-color:#E6E6E6"/>
	</linearGradient>
	<ellipse class="st1" cx="392.5" cy="162.5" rx="62.8" ry="81.7"/>
	<linearGradient id="SVGID_3_" gradientUnits="userSpaceOnUse" x1="110.8895" y1="190.8333" x2="110.8895" y2="134.1667">
		<stop  offset="0" style="stop-color:#999999"/>
		<stop  offset="0.2622" style="stop-color:#666666"/>
		<stop  offset="0.5" style="stop-color:#999999"/>
		<stop  offset="0.7757" style="stop-color:#E6E6E6"/>
		<stop  offset="1" style="stop-color:#999999"/>
	</linearGradient>
	<ellipse class="st2" cx="110.9" cy="162.5" rx="14" ry="28.3"/>
	<linearGradient id="SVGID_4_" gradientUnits="userSpaceOnUse" x1="353.4728" y1="232.2897" x2="353.4728" y2="92.7103">
		<stop  offset="0" style="stop-color:#999999"/>
		<stop  offset="0.2622" style="stop-color:#CCCCCC"/>
		<stop  offset="0.5" style="stop-color:#999999"/>
		<stop  offset="0.7757" style="stop-color:#E6E6E6"/>
		<stop  offset="1" style="stop-color:#999999"/>
	</linearGradient>
	<path class="st3" d="M363.8,97.7l-66.5-5v139.6l66.5-5c25.4,0,46-29,46-64.8C409.7,126.7,389.1,97.7,363.8,97.7z"/>
	<linearGradient id="SVGID_5_" gradientUnits="userSpaceOnUse" x1="110.8895" y1="220.1666" x2="110.8895" y2="104.8333">
		<stop  offset="0" style="stop-color:#E6E6E6"/>
		<stop  offset="0.5" style="stop-color:#E6E6E6"/>
		<stop  offset="1" style="stop-color:#F2F2F2"/>
	</linearGradient>
	<path class="st4" d="M110.9,104.8c-15.7,0-28.5,25.8-28.5,57.7c0,31.8,12.8,57.7,28.5,57.7s28.5-25.8,28.5-57.7
		C139.4,130.7,126.6,104.8,110.9,104.8z"/>
	<linearGradient id="SVGID_6_" gradientUnits="userSpaceOnUse" x1="203.7262" y1="220.0855" x2="203.7262" y2="104.9145">
		<stop  offset="0" style="stop-color:#999999"/>
		<stop  offset="0.2622" style="stop-color:#CCCCCC"/>
		<stop  offset="0.5" style="stop-color:#999999"/>
		<stop  offset="0.7757" style="stop-color:#E6E6E6"/>
		<stop  offset="1" style="stop-color:#999999"/>
	</linearGradient>
	<path class="st5" d="M266.7,113.2l-154.3-8.3c15,1.6,27,26.8,27,57.6c0,30.8-12,56-27,57.6l154.3-8.3c15.7,0,28.4-22.1,28.4-49.3
		C295.1,135.3,282.4,113.2,266.7,113.2z"/>
	<linearGradient id="SVGID_7_" gradientUnits="userSpaceOnUse" x1="304.5307" y1="232.2897" x2="304.5307" y2="92.7103">
		<stop  offset="0" style="stop-color:#E6E6E6"/>
		<stop  offset="0.1108" style="stop-color:#F2F2F2"/>
		<stop  offset="0.2622" style="stop-color:#CCCCCC"/>
		<stop  offset="0.5" style="stop-color:#E6E6E6"/>
		<stop  offset="0.7757" style="stop-color:#F2F2F2"/>
		<stop  offset="0.9162" style="stop-color:#F2F2F2"/>
		<stop  offset="1" style="stop-color:#E6E6E6"/>
	</linearGradient>
	<path class="st6" d="M297.2,92.7c-13.6,0-25.9,7.7-34.9,20.3l4.4,0.2c15.7,0,28.4,22.1,28.4,49.3c0,27.2-12.7,49.3-28.4,49.3
		l-4.4,0.2c8.9,12.5,21.3,20.3,34.9,20.3c27.3,0,49.5-31.2,49.5-69.8C346.7,124,324.6,92.7,297.2,92.7z"/>
	<linearGradient id="SVGID_8_" gradientUnits="userSpaceOnUse" x1="110.8895" y1="190.8333" x2="110.8895" y2="134.1666">
		<stop  offset="0" style="stop-color:#999999"/>
		<stop  offset="0.5" style="stop-color:#CCCCCC"/>
		<stop  offset="1" style="stop-color:#999999"/>
	</linearGradient>
	<ellipse class="st7" cx="110.9" cy="162.5" rx="12.6" ry="28.3"/>
</g>
</svg>
