<?xml version="1.0" encoding="utf-8"?>
<!-- Generator: Adobe Illustrator 21.1.0, SVG Export Plug-In . SVG Version: 6.00 Build 0)  -->
<svg version="1.1" id="Layer_1" xmlns="http://www.w3.org/2000/svg" xmlns:xlink="http://www.w3.org/1999/xlink" x="0px" y="0px"
	 viewBox="0 0 620 325" style="enable-background:new 0 0 620 325;" xml:space="preserve">
<style type="text/css">
	.st0{fill:url(#SVGID_1_);}
	.st1{fill:url(#SVGID_2_);}
	.st2{fill:url(#SVGID_3_);}
	.st3{fill:url(#SVGID_4_);}
	.st4{fill:url(#SVGID_5_);}
	.st5{fill:url(#SVGID_6_);}
	.st6{fill:url(#SVGID_7_);}
</style>
<g>
	<linearGradient id="SVGID_1_" gradientUnits="userSpaceOnUse" x1="509.0084" y1="196.9321" x2="509.0084" y2="128.068">
		<stop  offset="0" style="stop-color:#999999"/>
		<stop  offset="0.2622" style="stop-color:#CCCCCC"/>
		<stop  offset="0.5" style="stop-color:#999999"/>
		<stop  offset="0.7757" style="stop-color:#E6E6E6"/>
		<stop  offset="1" style="stop-color:#999999"/>
	</linearGradient>
	<path class="st0" d="M510.2,129.8l-29.8-1.7v68.9l29.8-1.7c15.1,0,27.4-14.6,27.4-32.7S525.3,129.8,510.2,129.8z"/>
	<linearGradient id="SVGID_2_" gradientUnits="userSpaceOnUse" x1="475.4317" y1="226.9493" x2="475.4317" y2="98.0507">
		<stop  offset="0" style="stop-color:#666666"/>
		<stop  offset="0.2622" style="stop-color:#999999"/>
		<stop  offset="0.5" style="stop-color:#B3B3B3"/>
		<stop  offset="0.7757" style="stop-color:#B3B3B3"/>
		<stop  offset="1" style="stop-color:#808080"/>
	</linearGradient>
	<path class="st1" d="M488.3,192.4c4.8-5.9,8.1-17.1,8.1-29.9c0-12.8-3.3-24-8.1-29.9v0l0,0c-0.7-0.8-1.4-1.6-2.1-2.2l-31.8-32.3
		v128.9l31.8-32.3C486.9,194,487.6,193.3,488.3,192.4L488.3,192.4L488.3,192.4z"/>
	<linearGradient id="SVGID_3_" gradientUnits="userSpaceOnUse" x1="396.2257" y1="248.0135" x2="396.2257" y2="76.9866">
		<stop  offset="0" style="stop-color:#999999"/>
		<stop  offset="0.2622" style="stop-color:#CCCCCC"/>
		<stop  offset="0.5" style="stop-color:#999999"/>
		<stop  offset="0.7757" style="stop-color:#E6E6E6"/>
		<stop  offset="1" style="stop-color:#999999"/>
	</linearGradient>
	<path class="st2" d="M427.4,87.6L312,77v171l115.4-10.6c29.3,0,53-33.5,53-74.9S456.7,87.6,427.4,87.6z"/>
	<linearGradient id="SVGID_4_" gradientUnits="userSpaceOnUse" x1="301.8111" y1="248.0135" x2="301.8111" y2="76.9866">
		<stop  offset="0" style="stop-color:#CCCCCC"/>
		<stop  offset="0.2622" style="stop-color:#CCCCCC"/>
		<stop  offset="0.5" style="stop-color:#E6E6E6"/>
		<stop  offset="0.7757" style="stop-color:#F2F2F2"/>
		<stop  offset="1" style="stop-color:#CCCCCC"/>
	</linearGradient>
	<path class="st3" d="M312,77c-5.1,0-10,1.1-14.7,3.1v0l-0.2,0.1c-2.7,1.2-5.4,2.7-7.9,4.5l-52.4,30.1v95.4l52.4,30.1
		c2.5,1.8,5.2,3.3,7.9,4.5l0.2,0.1v0c4.7,2,9.6,3.1,14.7,3.1c30.2,0,54.7-38.3,54.7-85.5S342.3,77,312,77z"/>
	<linearGradient id="SVGID_5_" gradientUnits="userSpaceOnUse" x1="186.3498" y1="216.6324" x2="186.3498" y2="108.3676">
		<stop  offset="0" style="stop-color:#999999"/>
		<stop  offset="0.2622" style="stop-color:#CCCCCC"/>
		<stop  offset="0.5" style="stop-color:#999999"/>
		<stop  offset="0.7757" style="stop-color:#E6E6E6"/>
		<stop  offset="1" style="stop-color:#999999"/>
	</linearGradient>
	<path class="st4" d="M236.9,114.8l-129.5-6.5v108.3l129.5-6.5c15.7,0,28.4-21.3,28.4-47.7S252.6,114.8,236.9,114.8z"/>
	<linearGradient id="SVGID_6_" gradientUnits="userSpaceOnUse" x1="107.4177" y1="216.6324" x2="107.4177" y2="108.3676">
		<stop  offset="0" style="stop-color:#E6E6E6"/>
		<stop  offset="0.5" style="stop-color:#E6E6E6"/>
		<stop  offset="1" style="stop-color:#F2F2F2"/>
	</linearGradient>
	<ellipse class="st5" cx="107.4" cy="162.5" rx="25" ry="54.1"/>
	<linearGradient id="SVGID_7_" gradientUnits="userSpaceOnUse" x1="107.4177" y1="185.7743" x2="107.4177" y2="139.2257">
		<stop  offset="0" style="stop-color:#999999"/>
		<stop  offset="0.5" style="stop-color:#CCCCCC"/>
		<stop  offset="1" style="stop-color:#999999"/>
	</linearGradient>
	<ellipse class="st6" cx="107.4" cy="162.5" rx="10.8" ry="23.3"/>
</g>
</svg>
