<?xml version="1.0" encoding="utf-8"?>
<!-- Generator: Adobe Illustrator 21.1.0, SVG Export Plug-In . SVG Version: 6.00 Build 0)  -->
<svg version="1.1" id="Layer_1" xmlns="http://www.w3.org/2000/svg" xmlns:xlink="http://www.w3.org/1999/xlink" x="0px" y="0px"
	 viewBox="0 0 620 325" style="enable-background:new 0 0 620 325;" xml:space="preserve">
<style type="text/css">
	.st0{fill:url(#SVGID_1_);}
	.st1{fill:url(#SVGID_2_);}
	.st2{fill:url(#SVGID_3_);}
	.st3{fill:url(#SVGID_4_);}
	.st4{fill:url(#SVGID_5_);}
	.st5{fill:url(#SVGID_6_);}
	.st6{fill:url(#SVGID_7_);}
</style>
<g>
	<linearGradient id="SVGID_1_" gradientUnits="userSpaceOnUse" x1="502.2121" y1="211.6384" x2="502.2121" y2="113.3616">
		<stop  offset="0" style="stop-color:#999999"/>
		<stop  offset="0.2622" style="stop-color:#CCCCCC"/>
		<stop  offset="0.5" style="stop-color:#999999"/>
		<stop  offset="0.7757" style="stop-color:#E6E6E6"/>
		<stop  offset="1" style="stop-color:#999999"/>
	</linearGradient>
	<path class="st0" d="M502.2,114.9l-30.4-1.5v24.8c-3.2,7.1-5,15.4-5,24.3s1.8,17.2,5,24.3v24.8l30.4-1.5
		c19.6,0,35.4-21.3,35.4-47.6S521.8,114.9,502.2,114.9z"/>
	<linearGradient id="SVGID_2_" gradientUnits="userSpaceOnUse" x1="471.0733" y1="211.6384" x2="471.0733" y2="113.3616">
		<stop  offset="0" style="stop-color:#CCCCCC"/>
		<stop  offset="0.2622" style="stop-color:#CCCCCC"/>
		<stop  offset="0.5" style="stop-color:#E6E6E6"/>
		<stop  offset="0.7757" style="stop-color:#F2F2F2"/>
		<stop  offset="1" style="stop-color:#CCCCCC"/>
	</linearGradient>
	<path class="st1" d="M471.8,113.4c-5.5,0-10.6,1.5-15.3,4.2v0l-0.1,0c-2.2,1.3-4.3,2.8-6.2,4.6l-17.6,12.9v54.5l17.3,12.9
		c2,1.9,4.2,3.5,6.6,4.9l0.1,0v0c4.7,2.7,9.9,4.2,15.3,4.2c20.9,0,37.8-22,37.8-49.1S492.6,113.4,471.8,113.4z"/>
	<linearGradient id="SVGID_3_" gradientUnits="userSpaceOnUse" x1="347.3498" y1="195.9738" x2="347.3498" y2="129.0262">
		<stop  offset="0" style="stop-color:#999999"/>
		<stop  offset="0.2622" style="stop-color:#CCCCCC"/>
		<stop  offset="0.5" style="stop-color:#999999"/>
		<stop  offset="0.7757" style="stop-color:#E6E6E6"/>
		<stop  offset="1" style="stop-color:#999999"/>
	</linearGradient>
	<path class="st2" d="M439.2,135.4l-6.6-0.2L238.2,129V196l201-6.3c9.5,0,17.2-12.1,17.2-27.1S448.8,135.4,439.2,135.4z"/>
	<linearGradient id="SVGID_4_" gradientUnits="userSpaceOnUse" x1="223.017" y1="229.1935" x2="223.017" y2="95.8065">
		<stop  offset="0" style="stop-color:#666666"/>
		<stop  offset="0.2622" style="stop-color:#999999"/>
		<stop  offset="0.5" style="stop-color:#B3B3B3"/>
		<stop  offset="0.7757" style="stop-color:#B3B3B3"/>
		<stop  offset="1" style="stop-color:#808080"/>
	</linearGradient>
	<path class="st3" d="M238.2,129l-46.1-33.2v133.4l46.1-33.2c8.7,0,15.7-15,15.7-33.5S246.9,129,238.2,129z"/>
	<linearGradient id="SVGID_5_" gradientUnits="userSpaceOnUse" x1="169.5407" y1="235.788" x2="169.5407" y2="89.212">
		<stop  offset="0" style="stop-color:#999999"/>
		<stop  offset="0.2622" style="stop-color:#CCCCCC"/>
		<stop  offset="0.5" style="stop-color:#999999"/>
		<stop  offset="0.7757" style="stop-color:#E6E6E6"/>
		<stop  offset="1" style="stop-color:#999999"/>
	</linearGradient>
	<path class="st4" d="M181.2,92.8l-61-3.6v146.6l61-3.6c20.9,0,37.8-31.2,37.8-69.7S202,92.8,181.2,92.8z"/>
	<linearGradient id="SVGID_6_" gradientUnits="userSpaceOnUse" x1="120.1524" y1="235.788" x2="120.1524" y2="89.212">
		<stop  offset="0" style="stop-color:#E6E6E6"/>
		<stop  offset="0.5" style="stop-color:#E6E6E6"/>
		<stop  offset="1" style="stop-color:#F2F2F2"/>
	</linearGradient>
	<ellipse class="st5" cx="120.2" cy="162.5" rx="37.8" ry="73.3"/>
	<linearGradient id="SVGID_7_" gradientUnits="userSpaceOnUse" x1="120.1524" y1="180.4148" x2="120.1524" y2="144.5852">
		<stop  offset="0" style="stop-color:#999999"/>
		<stop  offset="0.5" style="stop-color:#CCCCCC"/>
		<stop  offset="1" style="stop-color:#999999"/>
	</linearGradient>
	<ellipse class="st6" cx="120.2" cy="162.5" rx="9.2" ry="17.9"/>
</g>
</svg>
