<?xml version="1.0" encoding="utf-8"?>
<!-- Generator: Adobe Illustrator 21.1.0, SVG Export Plug-In . SVG Version: 6.00 Build 0)  -->
<svg version="1.1" id="Layer_1" xmlns="http://www.w3.org/2000/svg" xmlns:xlink="http://www.w3.org/1999/xlink" x="0px" y="0px"
	 viewBox="0 0 454.2 133.6" style="enable-background:new 0 0 454.2 133.6;" xml:space="preserve">
<style type="text/css">
	.st0{fill:#E62728;}
</style>
<path class="st0" d="M94.7,19.2c-19.9-3.3-39,4.5-50.9,19l7.8,6.5C61.4,33,77,26.6,93,29.3c16.1,2.7,28.7,13.9,34,28.1l9.6-3.6
	C130,36.2,114.6,22.6,94.7,19.2L94.7,19.2z"/>
<path class="st0" d="M125.1,80.6c3,19.9-5.2,38.9-19.9,50.5l-6.3-8c11.9-9.5,18.6-24.9,16.2-41.1c-2.4-16.2-13.3-29-27.5-34.6
	l3.7-9.5C108.7,44.9,122.1,60.7,125.1,80.6L125.1,80.6z"/>
<path class="st0" d="M27,29.1C36.2,11.4,54.1,0.8,72.8,0l0.5,10.2C58,10.8,43.5,19.4,36,33.8s-6.3,31.2,1.9,44.1l-8.6,5.6
	C19.3,67.6,17.7,47,27,29.1L27,29.1z"/>
<path class="st0" d="M106,82.6l-10.1-0.6c-0.9,15.2-9.8,29.5-24.4,36.8s-31.4,5.7-44.1-2.7l-5.7,8.5c15.6,10.4,36.2,12.3,54.3,3.3
	C94,118.8,104.8,101.2,106,82.6L106,82.6z"/>
<path class="st0" d="M65.4,101.3c-14.8,3.8-31.1-0.2-42.5-11.8s-15.1-28-11-42.7l-8.7-2.4l0,0L2,44c-5,18.1-0.5,38.3,13.6,52.6
	c14.1,14.4,34.2,19.3,52.3,14.6L65.4,101.3L65.4,101.3z"/>
<g>
	<path class="st0" d="M451.6,28.5c-0.8-2.2-2.2-3.9-3.9-5.2c-1.8-1.2-4-2.2-6.7-2.7c-2.7-0.5-5.9-0.7-9.5-0.7h-26
		c-4,0-7.4,0.3-10.2,0.8c-2.8,0.5-5.1,1.4-6.7,2.8c-1.8,1.3-3,3.1-3.7,5.2c-0.7,2.2-1.1,4.9-1.1,8.2v14.7c0,2.9,0.4,5.4,1.2,7.4
		c0.8,2.1,2.1,3.7,3.8,5.1c1.8,1.3,4,2.3,6.7,2.9c2.8,0.6,6.1,0.9,10.1,0.9h25.9c4.1,0,7.6-0.3,10.3-0.8c2.7-0.6,5-1.4,6.6-2.8
		c1.7-1.2,2.8-3,3.5-5.1c0.7-2.1,1-4.6,1-7.5v-15C452.9,33.3,452.5,30.6,451.6,28.5z M438.8,50.3h-0.1c0,1.5-0.2,2.9-0.5,3.9
		s-0.9,1.9-1.8,2.5c-0.8,0.6-2,1-3.4,1.2c-1.4,0.2-3.3,0.3-5.6,0.3h-18.7c-2.2,0-3.9-0.1-5.4-0.4c-1.4-0.2-2.6-0.7-3.4-1.2
		c-0.8-0.6-1.4-1.4-1.8-2.5s-0.5-2.3-0.5-3.8V37.7c0-1.8,0.2-3.1,0.5-4.2c0.3-1,0.9-2,1.9-2.6c0.9-0.6,2.1-1.1,3.5-1.3
		c1.4-0.2,3.3-0.4,5.5-0.4h18.3c2.1,0,3.9,0.1,5.4,0.3c1.4,0.2,2.6,0.6,3.5,1.2c0.9,0.6,1.5,1.4,2,2.6c0.4,1.1,0.6,2.5,0.6,4.2
		L438.8,50.3L438.8,50.3z"/>
	<path class="st0" d="M303.5,47.1c-1.7-1.4-3.8-2.6-6.6-3.4c2.4-0.8,4.3-1.9,5.8-3.3c1.4-1.4,2.2-3.6,2.2-6.7c0-2.4-0.4-4.4-1.2-6.2
		c-0.8-1.8-2.1-3.1-3.8-4.2c-1.8-1-4-1.9-6.8-2.4s-6.2-0.7-10.1-0.7h-24c-7.2,0-12.4,1-15.5,3.2c-3.2,2.2-4.7,5.6-4.7,10.1h14.1
		c0.1-0.7,0.2-1.3,0.4-2c0.2-0.5,0.5-1,1-1.3c0.5-0.4,1.2-0.6,2.2-0.8c0.9-0.2,2.2-0.3,3.6-0.3h23.8c2,0,3.6,0.3,5,1
		c1.2,0.7,2,2,2,3.8c0,2.2-0.6,3.6-2,4.4c-1.2,0.7-2.9,1.1-5,1.1h-27.7v8.3h26c2.1,0,3.7,0.1,5,0.4c1.2,0.3,2.3,0.6,2.9,1
		c0.7,0.4,1.1,1,1.3,1.8c0.2,0.7,0.3,1.4,0.3,2.3c0,2-0.7,3.3-2.3,4.1c-1.4,0.8-3.8,1.2-6.9,1.2h-23.7c-2,0-3.6-0.4-5-1.3
		c-1.3-0.9-2-2-2-3.2h-14.1c0,2.4,0.3,4.3,0.9,6c0.6,1.7,1.7,3.1,3.2,4.2c1.5,1.1,3.5,2,6.1,2.5c2.6,0.5,5.7,0.8,9.4,0.8H286
		c7,0,12.1-1.1,15.3-3.4c3.2-2.3,4.7-6,4.7-11C306,50.6,305.2,48.6,303.5,47.1L303.5,47.1z"/>
	<polygon class="st0" points="229.5,67.8 229.5,20.3 164.5,20.3 164.5,67.7 178.7,67.7 178.7,29.7 215.3,29.7 215.3,67.7 
		229.5,67.7 	"/>
	<polygon class="st0" points="377.4,20.3 313.4,20.3 313.4,29.7 338.2,29.7 338.2,67.7 352.4,67.7 352.4,29.7 377.4,29.7 	"/>
	<g>
		<path class="st0" d="M171.1,100.6H201v27.5h-9.9V107h-10.6v11.5c0,2-0.4,3.8-1.2,5.2c-0.8,1.5-2,2.6-3.7,3.4
			c-1.6,0.8-3.7,1.2-6.1,1.2c-1.8,0-3.4-0.1-5-0.3V122c0.7,0.2,1.7,0.3,3,0.3c1.3,0,2.3-0.3,2.8-0.8c0.5-0.5,0.8-1.5,0.8-2.9V100.6z
			"/>
		<path class="st0" d="M222.9,128.3c-2.7,0-5.1-0.1-7.1-0.4c-2-0.3-3.8-0.8-5.2-1.5c-1.5-0.7-2.6-1.8-3.5-3.1
			c-0.8-1.3-1.2-3-1.2-5.1v-7.8c0-2,0.4-3.7,1.2-5.1c0.8-1.3,2-2.4,3.5-3.1c1.5-0.7,3.2-1.2,5.2-1.5c2-0.3,4.4-0.4,7.1-0.4
			c2.7,0,5.1,0.1,7.1,0.4c2,0.3,3.8,0.8,5.2,1.5c1.5,0.7,2.6,1.7,3.4,3.1s1.2,3,1.2,5.1v7.8c0,2-0.4,3.7-1.2,5.1s-2,2.4-3.4,3.1
			c-1.5,0.7-3.2,1.2-5.3,1.5C228,128.2,225.6,128.3,222.9,128.3z M222.9,121.9c1.9,0,3.3-0.1,4.2-0.3c0.9-0.2,1.6-0.6,2.1-1.2
			c0.4-0.6,0.6-1.6,0.6-3v-6.2c0-1-0.1-1.8-0.4-2.4s-0.6-1-1.2-1.3c-0.5-0.3-1.2-0.5-2-0.6s-2-0.1-3.4-0.1c-1.9,0-3.3,0.1-4.2,0.3
			c-0.9,0.2-1.6,0.6-2,1.2c-0.4,0.6-0.7,1.6-0.7,3v6.2c0,1.4,0.3,2.3,0.7,3c0.4,0.6,1.1,1,2,1.2C219.6,121.8,221,121.9,222.9,121.9z
			"/>
		<path class="st0" d="M244.4,128.1v-27.5h25.2v6.4h-15.4v21.1H244.4z"/>
		<path class="st0" d="M273.3,100.6h9.3v18.1h0.3l11.5-18.1h12.9v27.5H298V110h-0.3l-11.1,18.1h-13.3V100.6z"/>
		<path class="st0" d="M334.6,117.7h10.1v0.8c0,1,0,1.8-0.1,2.4c-0.1,0.6-0.2,1.3-0.4,1.9c-0.2,0.6-0.5,1.3-1,1.8
			c-0.5,0.6-1.1,1.1-1.9,1.6c-1,0.6-2.2,1.1-3.4,1.4c-1.2,0.3-2.4,0.5-3.7,0.5c-1.2,0.1-2.8,0.1-4.6,0.1c-3,0-5.5-0.1-7.4-0.3
			c-1.9-0.2-3.6-0.6-5.2-1.3c-1.5-0.7-2.7-1.7-3.5-3.1c-0.8-1.4-1.2-3.3-1.2-5.8v-7.1c0-2.9,0.7-5.1,2-6.6c1.3-1.5,3.2-2.5,5.7-3
			c2.4-0.5,5.7-0.8,9.7-0.8c3.4,0,6.2,0.3,8.4,0.8c2.2,0.5,3.8,1.5,4.9,2.8c1.1,1.3,1.7,3.1,1.7,5.4v1.1h-10.1v-1.1
			c-0.1-0.8-0.4-1.4-0.9-1.7s-1.1-0.6-1.9-0.7c-0.8-0.1-1.8-0.2-3.2-0.2c-1.9,0-3.2,0.2-4.1,0.5s-1.4,0.8-1.7,1.5
			c-0.3,0.7-0.4,1.8-0.4,3.2v4.3c0,1.2,0.1,2.1,0.2,2.8c0.1,0.6,0.4,1.2,0.7,1.6c0.4,0.4,1,0.8,1.8,1c0.8,0.2,2,0.3,3.4,0.3
			c1.5,0,2.7-0.1,3.5-0.2c0.8-0.1,1.4-0.5,1.9-0.9c0.4-0.5,0.6-1.3,0.6-2.3V117.7z"/>
		<path class="st0" d="M365.6,107v21.1h-9.8V107h-9.4v-6.4h29.1v6.4H365.6z"/>
		<path class="st0" d="M378.6,100.6h9.3v18.1h0.3l11.5-18.1h12.9v27.5h-9.3V110H403L392,128.1h-13.3V100.6z"/>
		<path class="st0" d="M428.9,100.6v10.3h2.9l9.5-10.3h11.9l-13,13.5l14,14h-12.2l-10.3-10.8h-2.9v10.8H419v-27.5H428.9z"/>
	</g>
	<rect x="164.5" y="82.9" class="st0" width="288.5" height="2.6"/>
</g>
</svg>
