<?xml version="1.0" encoding="utf-8"?>
<!-- Generator: Adobe Illustrator 21.1.0, SVG Export Plug-In . SVG Version: 6.00 Build 0)  -->
<svg version="1.1" id="Layer_1" xmlns="http://www.w3.org/2000/svg" xmlns:xlink="http://www.w3.org/1999/xlink" x="0px" y="0px"
	 viewBox="0 0 282 397.7" style="enable-background:new 0 0 282 397.7;" xml:space="preserve">
<style type="text/css">
	.st0{fill:#EB212D;}
</style>
<path class="st0" d="M235.1,46c-25.7-25.4-59.8-39.1-96-38.6C66.7,8.4,7.4,68.1,7,140.6c-0.1,21.6,4.7,42.3,14.5,61.5l108.7,182.1
	c3.3,5.6,8.7,6.2,10.8,6.2c2.2,0,7.5-0.6,10.8-6.2L260.5,202c9.6-18.9,14.5-39.3,14.5-60.6C275,105.2,260.8,71.3,235.1,46z M141,199
	c-31.8,0-57.7-25.9-57.7-57.7c0-31.8,25.9-57.7,57.7-57.7c31.8,0,57.7,25.9,57.7,57.7C198.7,173.2,172.8,199,141,199z"/>
</svg>
