<?xml version="1.0" encoding="utf-8"?>
<!-- Generator: Adobe Illustrator 21.1.0, SVG Export Plug-In . SVG Version: 6.00 Build 0)  -->
<svg version="1.1" id="Capa_1" xmlns="http://www.w3.org/2000/svg" xmlns:xlink="http://www.w3.org/1999/xlink" x="0px" y="0px"
	 viewBox="0 0 100 140" style="enable-background:new 0 0 100 140;" xml:space="preserve">
<style type="text/css">
	.st0{fill:#EB212D;}
	.st1{fill:#BB1924;}
	.st2{fill:#FFFFFF;}
</style>
<polygon class="st0" points="100,140 0,140 0,0 70,0 100,30 "/>
<polygon class="st1" points="70,30 100,30 70,0 "/>
<g>
	<g>
		<g>
			<path class="st2" d="M64.6,46.3H24.4c-2.3,0-4.1,1.8-4.1,4.1v13.9c0,0.8,0.6,1.4,1.4,1.4s1.4-0.6,1.4-1.4V50.4
				c0-0.8,0.6-1.4,1.4-1.4h40.2c0.8,0,1.4,0.6,1.4,1.4v50.9c0,0.8-0.6,1.4-1.4,1.4H24.4c-0.8,0-1.4-0.6-1.4-1.4V75.9
				c0-0.8-0.6-1.4-1.4-1.4s-1.4,0.6-1.4,1.4v25.4c0,2.3,1.8,4.1,4.1,4.1h40.2c2.3,0,4.1-1.8,4.1-4.1V50.4
				C68.7,48.2,66.9,46.3,64.6,46.3z"/>
		</g>
	</g>
	<g>
		<g>
			<path class="st2" d="M22.7,69.5c-0.3-0.3-0.6-0.4-1-0.4c-0.4,0-0.7,0.1-1,0.4c-0.3,0.3-0.4,0.6-0.4,1c0,0.4,0.1,0.7,0.4,1
				c0.3,0.3,0.6,0.4,1,0.4c0.4,0,0.7-0.1,1-0.4c0.3-0.3,0.4-0.6,0.4-1C23.1,70.1,22.9,69.8,22.7,69.5z"/>
		</g>
	</g>
	<g>
		<g>
			<path class="st2" d="M28.1,108.5c-0.3-0.3-0.6-0.4-1-0.4c-0.4,0-0.7,0.1-1,0.4c-0.3,0.3-0.4,0.6-0.4,1c0,0.4,0.1,0.7,0.4,1
				c0.3,0.3,0.6,0.4,1,0.4c0.4,0,0.7-0.1,1-0.4c0.3-0.3,0.4-0.6,0.4-1C28.5,109.2,28.4,108.8,28.1,108.5z"/>
		</g>
	</g>
	<g>
		<g>
			<path class="st2" d="M72.8,51.8c-0.8,0-1.4,0.6-1.4,1.4v53.6c0,0.8-0.6,1.4-1.4,1.4H32.6c-0.8,0-1.4,0.6-1.4,1.4
				c0,0.8,0.6,1.4,1.4,1.4h37.5c2.3,0,4.1-1.8,4.1-4.1V53.2C74.2,52.4,73.6,51.8,72.8,51.8z"/>
		</g>
	</g>
	<g>
		<g>
			<path class="st2" d="M78.3,57.3c-0.8,0-1.4,0.6-1.4,1.4v53.6c0,0.8-0.6,1.4-1.4,1.4H32.6c-0.8,0-1.4,0.6-1.4,1.4
				c0,0.8,0.6,1.4,1.4,1.4h42.9c2.3,0,4.1-1.8,4.1-4.1V58.6C79.7,57.9,79.1,57.3,78.3,57.3z"/>
		</g>
	</g>
	<g>
		<g>
			<path class="st2" d="M42.5,56.5H29.3c-0.8,0-1.4,0.6-1.4,1.4v13.1c0,0.8,0.6,1.4,1.4,1.4h13.1c0.8,0,1.4-0.6,1.4-1.4V57.8
				C43.8,57.1,43.2,56.5,42.5,56.5z M41.1,69.6H30.7V59.2h10.4V69.6z"/>
		</g>
	</g>
	<g>
		<g>
			<path class="st2" d="M38.1,78.5c-0.5-0.5-1.4-0.5-1.9,0l-3.6,3.6l-1.7-1.7c-0.5-0.5-1.4-0.5-1.9,0c-0.5,0.5-0.5,1.4,0,1.9
				l2.7,2.7c0.3,0.3,0.6,0.4,1,0.4c0.4,0,0.7-0.1,1-0.4l4.6-4.6C38.6,79.9,38.6,79.1,38.1,78.5z"/>
		</g>
	</g>
	<g>
		<g>
			<path class="st2" d="M60.5,80.4h-16c-0.8,0-1.4,0.6-1.4,1.4s0.6,1.4,1.4,1.4h16c0.8,0,1.4-0.6,1.4-1.4
				C61.8,81,61.2,80.4,60.5,80.4z"/>
		</g>
	</g>
	<g>
		<g>
			<path class="st2" d="M59.7,56.5h-9.6c-0.8,0-1.4,0.6-1.4,1.4c0,0.8,0.6,1.4,1.4,1.4h9.6c0.8,0,1.4-0.6,1.4-1.4
				C61.1,57.1,60.5,56.5,59.7,56.5z"/>
		</g>
	</g>
	<g>
		<g>
			<path class="st2" d="M59.7,63h-9.6c-0.8,0-1.4,0.6-1.4,1.4c0,0.8,0.6,1.4,1.4,1.4h9.6c0.8,0,1.4-0.6,1.4-1.4
				C61.1,63.6,60.5,63,59.7,63z"/>
		</g>
	</g>
	<g>
		<g>
			<path class="st2" d="M59.7,69.6h-9.6c-0.8,0-1.4,0.6-1.4,1.4s0.6,1.4,1.4,1.4h9.6c0.8,0,1.4-0.6,1.4-1.4S60.5,69.6,59.7,69.6z"/>
		</g>
	</g>
	<g>
		<g>
			<path class="st2" d="M38.1,89c-0.5-0.5-1.4-0.5-1.9,0l-3.6,3.6l-1.7-1.7c-0.5-0.5-1.4-0.5-1.9,0c-0.5,0.5-0.5,1.4,0,1.9l2.7,2.7
				c0.3,0.3,0.6,0.4,1,0.4c0.4,0,0.7-0.1,1-0.4l4.6-4.6C38.6,90.4,38.6,89.5,38.1,89z"/>
		</g>
	</g>
	<g>
		<g>
			<path class="st2" d="M60.5,90.8h-16c-0.8,0-1.4,0.6-1.4,1.4c0,0.8,0.6,1.4,1.4,1.4h16c0.8,0,1.4-0.6,1.4-1.4
				C61.8,91.4,61.2,90.8,60.5,90.8z"/>
		</g>
	</g>
</g>
</svg>
