<?xml version="1.0" encoding="utf-8"?>
<!-- Generator: Adobe Illustrator 21.1.0, SVG Export Plug-In . SVG Version: 6.00 Build 0)  -->
<svg version="1.1" id="Capa_1" xmlns="http://www.w3.org/2000/svg" xmlns:xlink="http://www.w3.org/1999/xlink" x="0px" y="0px"
	 viewBox="0 0 100 140" style="enable-background:new 0 0 100 140;" xml:space="preserve">
<style type="text/css">
	.st0{fill:#EB212D;}
	.st1{fill:#FFFFFF;}
	.st2{fill:#BB1924;}
</style>
<polygon class="st0" points="100,140 0,140 0,0 70,0 100,30 "/>
<g>
	<g>
		<g>
			<path class="st1" d="M74.4,66.7c0.8,0,1.4-0.6,1.4-1.4V50.4c0-2.3-1.8-4.1-4.1-4.1H21.9c-2.3,0-4.1,1.8-4.1,4.1v61.8
				c0,2.3,1.8,4.1,4.1,4.1h49.8c2.3,0,4.1-1.8,4.1-4.1v-10.1c0-0.8-0.6-1.4-1.4-1.4c-0.8,0-1.4,0.6-1.4,1.4v10.1
				c0,0.8-0.6,1.4-1.4,1.4H21.9c-0.8,0-1.4-0.6-1.4-1.4V50.4c0-0.8,0.6-1.4,1.4-1.4h49.8c0.8,0,1.4,0.6,1.4,1.4v14.9
				C73.1,66.1,73.7,66.7,74.4,66.7z"/>
		</g>
	</g>
	<g>
		<g>
			<path class="st1" d="M46.8,53.7c-6.9,0-12.6,5.6-12.6,12.6c0,3.6,1.5,6.8,3.9,9.1c0,0,0.1,0.1,0.1,0.1c2.2,2,5.2,3.3,8.5,3.3
				s6.2-1.3,8.5-3.3c0.1,0,0.1-0.1,0.1-0.1c2.4-2.3,3.9-5.5,3.9-9.1C59.4,59.4,53.8,53.7,46.8,53.7z M46.8,76.1
				c-2.2,0-4.3-0.7-5.9-2c1.2-2.1,3.4-3.5,5.9-3.5c2.5,0,4.7,1.3,5.9,3.5C51.1,75.4,49.1,76.1,46.8,76.1z M44.6,65.8v-0.9
				c0-1.2,1-2.2,2.2-2.2c1.2,0,2.2,1,2.2,2.2v0.9c0,1.2-1,2.2-2.2,2.2C45.6,67.9,44.6,67,44.6,65.8z M54.7,72.1
				c-1-1.5-2.4-2.7-4-3.4c0.6-0.8,1-1.9,1-3v-0.9c0-2.7-2.2-4.9-4.9-4.9s-4.9,2.2-4.9,4.9v0.9c0,1.1,0.4,2.2,1,3
				c-1.6,0.7-3,1.9-4,3.4c-1.2-1.6-1.9-3.7-1.9-5.8c0-5.4,4.4-9.8,9.8-9.8s9.8,4.4,9.8,9.8C56.7,68.5,55.9,70.5,54.7,72.1z"/>
		</g>
	</g>
	<g>
		<g>
			<path class="st1" d="M54.2,106.2h-7.4c-0.8,0-1.4,0.6-1.4,1.4c0,0.8,0.6,1.4,1.4,1.4h7.4c0.8,0,1.4-0.6,1.4-1.4
				C55.6,106.8,55,106.2,54.2,106.2z"/>
		</g>
	</g>
	<g>
		<g>
			<path class="st1" d="M54.2,98.6H34.8c-0.8,0-1.4,0.6-1.4,1.4c0,0.8,0.6,1.4,1.4,1.4h19.4c0.8,0,1.4-0.6,1.4-1.4
				C55.6,99.2,55,98.6,54.2,98.6z"/>
		</g>
	</g>
	<g>
		<g>
			<path class="st1" d="M54.2,90.9H34.8c-0.8,0-1.4,0.6-1.4,1.4c0,0.8,0.6,1.4,1.4,1.4h19.4c0.8,0,1.4-0.6,1.4-1.4
				C55.6,91.5,55,90.9,54.2,90.9z"/>
		</g>
	</g>
	<g>
		<g>
			<path class="st1" d="M29.9,83.7c-0.3-0.3-0.6-0.4-1-0.4c-0.4,0-0.7,0.1-1,0.4c-0.3,0.3-0.4,0.6-0.4,1c0,0.4,0.1,0.7,0.4,1
				c0.3,0.3,0.6,0.4,1,0.4c0.4,0,0.7-0.1,1-0.4c0.3-0.3,0.4-0.6,0.4-1C30.3,84.3,30.2,83.9,29.9,83.7z"/>
		</g>
	</g>
	<g>
		<g>
			<path class="st1" d="M29.9,91.3c-0.3-0.3-0.6-0.4-1-0.4c-0.4,0-0.7,0.1-1,0.4c-0.3,0.3-0.4,0.6-0.4,1c0,0.4,0.1,0.7,0.4,1
				c0.3,0.3,0.6,0.4,1,0.4c0.4,0,0.7-0.1,1-0.4c0.3-0.3,0.4-0.6,0.4-1C30.3,91.9,30.2,91.6,29.9,91.3z"/>
		</g>
	</g>
	<g>
		<g>
			<path class="st1" d="M29.9,99c-0.3-0.3-0.6-0.4-1-0.4c-0.4,0-0.7,0.1-1,0.4c-0.3,0.3-0.4,0.6-0.4,1c0,0.4,0.1,0.7,0.4,1
				c0.3,0.3,0.6,0.4,1,0.4c0.4,0,0.7-0.1,1-0.4c0.3-0.3,0.4-0.6,0.4-1C30.3,99.6,30.2,99.2,29.9,99z"/>
		</g>
	</g>
	<g>
		<g>
			<path class="st1" d="M54.2,83.3H34.8c-0.8,0-1.4,0.6-1.4,1.4c0,0.8,0.6,1.4,1.4,1.4h19.4c0.8,0,1.4-0.6,1.4-1.4
				C55.6,83.9,55,83.3,54.2,83.3z"/>
		</g>
	</g>
	<g>
		<g>
			<path class="st1" d="M85,64.2c-1.3-0.8-2.9-1-4.4-0.6c-1.5,0.4-2.7,1.3-3.5,2.7L59.9,96.1c-0.1,0.2-0.2,0.3-0.2,0.5l-1.2,10.8
				c-0.1,0.5,0.2,1.1,0.7,1.3c0.2,0.1,0.4,0.2,0.7,0.2c0.3,0,0.6-0.1,0.8-0.3l8.8-6.5c0.2-0.1,0.3-0.3,0.4-0.4L87.1,72
				C88.6,69.3,87.7,65.7,85,64.2z M61.6,104.6l0.6-5.7l4,2.3L61.6,104.6z M68.2,99.2l-5.2-3l13.8-23.9l5.2,3L68.2,99.2z M84.7,70.6
				L83.3,73l-5.2-3l1.3-2.3c0.4-0.7,1.1-1.2,1.8-1.4c0.8-0.2,1.6-0.1,2.3,0.3c0.7,0.4,1.2,1.1,1.4,1.8
				C85.2,69.1,85.1,69.9,84.7,70.6z"/>
		</g>
	</g>
</g>
<polygon class="st2" points="70,30 100,30 70,0 "/>
</svg>
