<?xml version="1.0" encoding="utf-8"?>
<!-- Generator: Adobe Illustrator 21.1.0, SVG Export Plug-In . SVG Version: 6.00 Build 0)  -->
<svg version="1.1" id="Capa_1" xmlns="http://www.w3.org/2000/svg" xmlns:xlink="http://www.w3.org/1999/xlink" x="0px" y="0px"
	 viewBox="0 0 496 496" style="enable-background:new 0 0 496 496;" xml:space="preserve">
<style type="text/css">
	.st0{fill:#EB212D;}
	.st1{fill:#262626;}
</style>
<g>
	<rect x="120" y="152" class="st0" width="256" height="40"/>
	<path class="st0" d="M416,368v-80h-38.2c-2.5-8.2-5.8-16-9.7-23.5l27-27l-30.6-30.6l-57,67.8c12.7,14.2,20.5,32.8,20.5,53.3
		c0,44.2-35.8,80-80,80s-80-35.8-80-80c0-20.5,7.8-39.1,20.5-53.3l-57-67.8l-30.6,30.6l27,27c-4,7.5-7.2,15.4-9.7,23.5H80v80h38.2
		c2.5,8.2,5.8,16,9.7,23.5l-27,27l56.6,56.6l27-27c7.5,4,15.4,7.2,23.5,9.7V496h80v-38.2c8.2-2.5,16-5.8,23.5-9.7l27,27l56.6-56.6
		l-27-27c4-7.5,7.2-15.4,9.7-23.5H416z"/>
</g>
<g>
	<path class="st1" d="M288,120V56h-16V0h-48v56h-16v64h-50.8L112,156.2v38.7l66.3,79.5C166.5,289.7,160,308.4,160,328
		c0,48.5,39.5,88,88,88s88-39.5,88-88c0-19.6-6.5-38.3-18.3-53.6l66.3-79.5v-38.7L338.8,120H288z M240,16h16v40h-16V16z M224,72h48
		v48h-48V72z M162.8,136h170.4l20,16H336v16h32v16H128v-16h192v-16H142.8L162.8,136z M292.2,280h-88.5l-66.7-80h221.8L292.2,280z
		 M278.9,296L255,324.7c-3.5,4.2-10.5,4.2-14,0l-24-28.7H278.9z M320,328c0,39.7-32.3,72-72,72s-72-32.3-72-72
		c0-14.8,4.5-29,12.8-40.9l39.9,47.9c4.8,5.7,11.8,9,19.3,9s14.5-3.3,19.3-9l39.9-47.9C315.5,299,320,313.1,320,328z"/>
	<path class="st1" d="M496,248c0-34.5-6.9-67.9-20.6-99.2l-14.7,6.4c12.8,29.3,19.3,60.5,19.3,92.8c0,24.8-4.1,49.1-11.8,72.4
		c-1.4-0.2-2.8-0.4-4.2-0.4c-13.2,0-24,10.8-24,24s10.8,24,24,24s24-10.8,24-24c0-5.8-2.1-11-5.5-15.2
		C491.4,302.9,496,275.7,496,248z M464,352c-4.4,0-8-3.6-8-8s3.6-8,8-8s8,3.6,8,8S468.4,352,464,352z"/>
	<path class="st1" d="M32,112c-13.2,0-24,10.8-24,24c0,8,4,15,10,19.4C6.1,184.8,0,215.9,0,248c0,28.4,4.8,56.2,14.1,82.7l15.1-5.3
		C20.4,300.6,16,274.6,16,248c0-30.6,5.9-60.2,17.4-88.1C46,159.1,56,148.8,56,136C56,122.8,45.2,112,32,112z M32,144
		c-4.4,0-8-3.6-8-8s3.6-8,8-8s8,3.6,8,8S36.4,144,32,144z"/>
</g>
</svg>
